PathFileType	4	(X/Y/Z)	C:/Users/beibeiliu/ov580/test_trc/User2\sequence.6_training_dense_right.trc
DataRate	CameraRate	NumFrames	NumMarkers	Units	OrigDataRate	OrigDataStartFrame	OrigNumFrames
120	120	16	19	mm	120	54	80
Frame#	Time	ThumbCMC			ThumbMCP			ThumbIP			ThumbTip			IndexMCP			IndexPIP			IndexTip			MiddleMCP			MiddlePIP			MiddleTip			RingMCP			RingPIP			RingTip			PinkyMCP			PinkyPIP			PinkyTip			BackHand1			BackHand2			BackHand3	
		X0	Y0	Z0	X1	Y1	Z1	X2	Y2	Z2	X3	Y3	Z3	X4	Y4	Z4	X5	Y5	Z5	X6	Y6	Z6	X7	Y7	Z7	X8	Y8	Z8	X9	Y9	Z9	X10	Y10	Z10	X11	Y11	Z11	X12	Y12	Z12	X13	Y13	Z13	X14	Y14	Z14	X15	Y15	Z15	X16	Y16	Z16	X17	Y17	Z17	X18	Y18	Z18	
53	0.441667	114.715	24.8031	-20.7212	76.6133	21.1159	-33.2968	50.9835	6.9835	-49.4552	41.7023	-19.1487	-68.5458	121.743	9.29733	-100.939	107.449	5.90469	-128.279	77.6663	-3.48758	-139.807	106.556	-20.4002	-103.478	67.6069	-31.0056	-107.792	42.9243	-32.8158	-81.2526	95.4431	-45.8834	-89.2456	66.5053	-45.8291	-79.8426	56.9693	-28.6565	-46.6777	101.118	-61.3228	-70.1387	70.727	-56.0454	-57.8571	68.3239	-32.8228	-35.864	152.646	-33.4856	-50.1483	166.205	-26.6697	-20.2631	154.053	6.87751	-39.6456	
54	0.45	118.407	23.0273	-21.5043	83.0276	19.4065	-33.3052	54.326	6.70856	-54.2019	44.5494	-14.3246	-66.8192	125.322	9.69295	-106.193	107.354	8.11102	-133.144	80.2685	-0.733823	-141.352	109.425	-20.2633	-106.39	71.6235	-28.5779	-109.763	47.2015	-27.1325	-85.8094	98.8307	-40.9085	-91.0983	70.3108	-45.349	-81.4408	60.0243	-30.8268	-51.0451	101.249	-58.7938	-73.5831	73.2235	-50.1933	-59.3497	73.4613	-29.686	-32.0552	153.173	-29.6839	-53.9751	169.012	-26.9898	-20.6871	156.523	7.88489	-42.978	
55	0.458333	120.135	22.4285	-23.9044	84.802	18.032	-38.614	56.676	8.3186	-53.7211	48.6432	-16.5668	-70.693	128.203	13.0634	-105.848	114.456	8.46984	-133.336	89.9036	1.63548	-148.09	113.293	-20.1521	-106.965	77.4057	-27.6693	-112.118	49.3036	-28.061	-83.109	105.107	-43.3594	-90.9515	71.2139	-38.8981	-82.6523	61.9465	-32.1561	-49.7158	106.845	-57.4595	-74.4179	75.2218	-51.2101	-59.6374	75.414	-28.3705	-38.0422	157.213	-30.7563	-55.6266	170.397	-26.0054	-20.8988	157.604	10.358	-42.6896	
56	0.466667	122.214	22.9455	-25.906	85.3126	18.508	-39.1568	59.5707	7.0261	-57.8773	49.0755	-14.5852	-72.8778	131.456	10.7094	-107.435	121.06	12.5447	-132.562	100.138	5.89226	-157.145	116.615	-20.0896	-107.786	82.4142	-29.4828	-113.443	53.3207	-27.8051	-86.7822	107.576	-39.999	-92.4949	74.4096	-44.4811	-83.503	64.9113	-33.5565	-52.3555	108.538	-55.9542	-76.4841	78.0754	-52.0254	-61.6218	79.7029	-32.0693	-35.7059	159.412	-32.2565	-53.4032	173.219	-25.9911	-22.828	160.209	6.20614	-43.3124	
57	0.475	124.765	24.3277	-25.7317	87.4012	19.7979	-42.6991	58.8326	7.98711	-61.9192	53.1303	-13.1094	-72.4768	135.043	14.1184	-106.621	126.806	12.087	-134.968	111.758	7.07881	-161.124	119.715	-21.8033	-108.208	82.1459	-28.1396	-114.398	56.798	-29.495	-87.8855	111.558	-43.0764	-92.6789	79.1111	-43.4632	-86.2033	67.7533	-27.8195	-54.5752	109.871	-59.8353	-77.1931	82.7503	-48.1923	-65.5805	83.1825	-26.9715	-37.1628	162.918	-28.2528	-54.7421	175.196	-26.4907	-25.8823	163.715	6.03289	-43.7819	
58	0.483333	130.935	26.1564	-29.7474	94.4994	23.8295	-41.3142	66.6231	14.1846	-60.8611	60.6534	-12.1803	-76.8916	142.592	14.8027	-107.834	134.639	18.4231	-137.633	123.367	14.038	-162.118	128.406	-17.5181	-108.988	89.2624	-27.7271	-115.742	60.5065	-22.7087	-90.1786	118.077	-35.8357	-96.5769	85.6592	-40.9747	-86.4925	74.5428	-26.9449	-58.6126	118.412	-56.635	-78.8786	88.5549	-46.7756	-66.8593	86.9885	-26.6948	-40.9799	168.709	-29.278	-53.8481	182.546	-24.1289	-21.5128	170.98	9.23579	-42.5784	
59	0.491667	140.067	28.8912	-29.8938	102.403	30.2423	-44.6103	79.5825	13.4798	-66.4565	70.6393	-6.94897	-79.5951	153.661	21.7822	-108.89	146.366	18.7968	-137.433	131.537	11.5697	-163.608	135.903	-13.7445	-113.258	100.262	-20.9383	-120.226	72.0169	-20.0598	-97.6995	126.985	-35.1734	-99.1061	94.4314	-36.4419	-91.6031	83.3481	-24.6715	-61.2033	128.771	-52.8634	-80.8431	97.1355	-44.7162	-70.515	96.1587	-23.5195	-47.89	175.472	-24.8257	-59.2212	190.127	-21.1539	-22.8182	180.707	11.3844	-42.6726	
60	0.5	148.279	35.7494	-29.5471	115.564	30.7242	-47.8633	88.505	21.2419	-69.7827	80.339	-3.2229	-86.7493	167.134	20.0745	-112.486	154.643	19.2119	-143.114	130.511	12.2186	-162.383	149.808	-8.15242	-113.655	113.8	-13.2625	-124.803	79.7943	-15.6668	-98.1668	134.262	-32.2345	-102.809	105.195	-31.2975	-95.4783	92.8723	-18.9981	-63.8474	136.993	-49.8357	-82.7014	105.921	-35.0012	-75.3063	102.333	-22.0787	-49.5581	185.859	-23.9978	-58.733	197.634	-19.6763	-24.8638	189.044	14.0536	-47.0306	
61	0.508333	153.844	36.065	-34.6229	118.366	37.0928	-48.8963	92.9951	24.561	-73.7662	91.2078	-1.24316	-86.7117	173.55	22.2068	-109.139	160.372	13.1292	-141.941	131.204	10.4157	-151.947	156.472	-10.0075	-113.243	118.972	-11.4825	-127.238	88.4947	-9.91364	-105.013	142.657	-26.5164	-103.979	112.623	-27.4514	-100.978	98.4124	-16.6917	-68.8968	140.923	-44.1367	-87.5725	112.232	-37.794	-78.5874	109.146	-14.5838	-50.6289	189.215	-22.8017	-59.7438	201.347	-18.6515	-26.1474	193.602	18.4209	-46.2279	
62	0.516667	155.607	37.721	-33.8714	121.522	34.7279	-50.6891	96.0748	22.5405	-77.5944	92.3414	-1.22628	-90.8802	175.365	19.1304	-109.177	163.971	12.6535	-138.786	128.957	9.33755	-148.187	156.878	-9.53521	-118.982	122.983	-11.6148	-128.124	90.1643	-12.448	-103.327	146.812	-29.7305	-102.848	112.114	-24.8873	-100.032	100.474	-14.3689	-65.879	145.419	-47.826	-85.9138	113.494	-35.1196	-79.0904	113.112	-14.1299	-53.7243	192.43	-20.7073	-57.099	204.272	-19.4337	-23.7291	193.845	16.1969	-47.0073	
63	0.525	153.503	37.3029	-34.971	120.644	33.6225	-51.9083	95.0407	24.1025	-75.5861	89.9377	-2.7591	-92.9748	174.882	19.2404	-109.988	162.698	19.5601	-143.328	131.131	7.01437	-151.429	156.986	-9.8625	-115.68	124.336	-14.2882	-127.039	88.6467	-14.8107	-101.083	146.715	-30.5023	-101.873	113.638	-30.1268	-98.809	100.672	-18.0717	-68.8869	145.287	-47.7692	-85.2841	115.952	-36.6979	-81.0138	109.792	-17.6189	-54.369	193.011	-21.1382	-60.6365	203.011	-17.3498	-23.263	192.462	18.6741	-46.8509	
64	0.533333	152.472	36.8626	-28.2629	115.981	34.8466	-51.3429	90.6108	25.4651	-69.8981	85.4992	-0.375269	-89.235	171.23	26.2653	-107.979	160.218	23.411	-143.525	135.546	12.6695	-160.206	152.362	-4.65384	-115.497	118.125	-14.9878	-123.661	86.7137	-11.5907	-101.444	142.44	-28.4442	-101.285	106.482	-29.8037	-94.9385	95.9639	-16.7126	-68.5806	141.828	-44.8458	-85.3311	110.277	-36.2389	-77.1085	105.262	-19.5715	-51.0701	189.372	-21.5171	-60.1439	201.563	-17.0986	-24.3765	190.606	17.4051	-44.0293	
65	0.541667	144.812	37.5788	-27.334	111.502	31.8197	-44.7148	84.6681	24.4032	-65.8	75.7701	1.81422	-81.7983	161.985	25.3872	-105.673	152.945	20.1951	-138.723	135.015	15.7637	-159.87	142.866	-9.59122	-114.207	109.827	-14.6358	-119.94	79.9736	-11.7467	-97.4826	132.123	-26.187	-99.5404	101.183	-26.5233	-93.3704	88.2347	-14.1961	-62.2382	132.889	-44.3027	-83.1189	101.787	-36.846	-70.853	99.8624	-19.0256	-48.862	183.465	-20.4293	-55.3777	194.192	-14.7481	-21.2558	185.823	16.394	-45.2269	
66	0.55	133.886	37.8811	-23.0358	100.799	31.1125	-38.0802	73.0029	21.9973	-62.9294	66.5239	-0.235002	-77.2623	148.324	24.9433	-105.069	140.304	26.4829	-132.41	118.466	18.307	-158.419	133.799	-5.33097	-107.478	97.8223	-13.8455	-115.386	68.1301	-15.5512	-87.169	121.275	-28.3373	-96.8936	89.6199	-29.5433	-87.3602	78.7168	-18.5384	-58.9184	125.948	-44.6687	-80.1087	96.355	-40.1467	-71.5264	89.4459	-24.8076	-41.2891	174.632	-20.4635	-56.2032	185.254	-15.1427	-21.4544	174.296	18.8399	-38.6495	
67	0.558333	118.963	37.3635	-14.7102	87.0934	26.6939	-32.0435	64.2797	13.1151	-56.6499	54.6415	-4.73214	-72.6881	132.414	30.1793	-97.9566	120.113	30.6151	-126.769	99.7059	18.2617	-148.04	118.773	1.39671	-105.048	88.8794	-13.6683	-111.141	60.9727	-22.099	-86.0125	119.908	-24.7409	-92.743	87.2099	-31.2774	-90.0177	71.1382	-27.3265	-58.5901	123.382	-44.1197	-78.3828	88.2684	-41.0245	-70.4119	80.2236	-33.6203	-43.2267	166.056	-11.2704	-49.2798	179.776	-10.1344	-15.9181	160.153	26.9127	-35.2343	
68	0.566667	102.587	31.1039	-4.21486	74.9544	18.3093	-22.0288	48.3383	6.75451	-48.5114	44.1708	-10.7282	-69.7263	112.596	36.4822	-86.064	101.212	34.265	-114.954	78.0552	24.7246	-135.119	111.329	7.55381	-101.199	83.6787	-9.21599	-110.426	55.9153	-27.7258	-90.0248	116.336	-16.5525	-93.8547	86.3963	-27.5819	-96.0561	64.1996	-34.8235	-66.0524	122.907	-33.9975	-80.8804	94.0309	-42.0788	-80.687	74.0951	-42.0163	-51.9098	156.35	1.12579	-43.6935	169.114	0.133905	-14.5248	146.037	29.3033	-26.7305	
